<?xml version="1.0" encoding="UTF-8" standalone="no"?>
<svg
   xmlns:dc="http://purl.org/dc/elements/1.1/"
   xmlns:cc="http://creativecommons.org/ns#"
   xmlns:rdf="http://www.w3.org/1999/02/22-rdf-syntax-ns#"
   xmlns:svg="http://www.w3.org/2000/svg"
   xmlns="http://www.w3.org/2000/svg"
   xmlns:sodipodi="http://sodipodi.sourceforge.net/DTD/sodipodi-0.dtd"
   xmlns:inkscape="http://www.inkscape.org/namespaces/inkscape"
   id="svg8"
   version="1.1"
   viewBox="0 0 67.733331 67.733331"
   height="256"
   width="256"
   sodipodi:docname="icon-bezel-inv.svg"
   inkscape:version="0.92.2 (5c3e80d, 2017-08-06)">
  <sodipodi:namedview
     pagecolor="#ffffff"
     bordercolor="#666666"
     borderopacity="1"
     objecttolerance="10"
     gridtolerance="10"
     guidetolerance="10"
     inkscape:pageopacity="0"
     inkscape:pageshadow="2"
     inkscape:window-width="1366"
     inkscape:window-height="705"
     id="namedview847"
     showgrid="false"
     inkscape:zoom="2.09375"
     inkscape:cx="128"
     inkscape:cy="185.53709"
     inkscape:window-x="-8"
     inkscape:window-y="-8"
     inkscape:window-maximized="1"
     inkscape:current-layer="layer1" />
  <defs
     id="defs2">
    <clipPath
       id="clipPath6566"
       clipPathUnits="userSpaceOnUse">
      <path
         id="path6568"
         d="m 17.840512,272.64358 c -0.808648,-4.44756 8.135747,-17.23626 21.261021,-11.56459"
         style="fill:none;fill-rule:evenodd;stroke:#000000;stroke-width:0.26458332px;stroke-linecap:butt;stroke-linejoin:miter;stroke-opacity:1" />
    </clipPath>
    <clipPath
       id="clipPath6566-5"
       clipPathUnits="userSpaceOnUse">
      <path
         id="path6568-6"
         d="m 17.840512,272.64358 c -0.808648,-4.44756 8.135747,-17.23626 21.261021,-11.56459"
         style="fill:none;fill-rule:evenodd;stroke:#000000;stroke-width:0.26458332px;stroke-linecap:butt;stroke-linejoin:miter;stroke-opacity:1" />
    </clipPath>
    <clipPath
       id="clipPath6673"
       clipPathUnits="userSpaceOnUse">
      <g
         id="use6675">
        <path
           clip-path="url(#clipPath6566-5)"
           id="path6712"
           d="m 10.645602,282.90652 c 0.414714,-0.36769 0.847791,-0.69723 1.246435,-1.0883 0.927523,-0.90992 1.803392,-1.87858 2.59054,-2.88355 0.393574,-0.50248 0.765012,-1.01372 1.109494,-1.53169 0.34448,-0.51797 0.662207,-1.0425 0.948262,-1.57044 0.286055,-0.52795 0.540315,-1.05924 0.75861,-1.59164 0.218296,-0.5324 0.400366,-1.06597 0.541569,-1.59732 0.410943,0.19912 0.824991,0.36515 1.240752,0.50075 0.41576,0.1356 0.833333,0.24093 1.251603,0.31936 0.418269,0.0784 0.837267,0.13 1.255737,0.15761 0.418469,0.0276 0.836276,0.0313 1.252637,0.0145 0.83272,-0.0337 1.659188,-0.15042 2.469616,-0.32401 0.810428,-0.17359 1.604871,-0.40446 2.374532,-0.66714 0.769662,-0.26268 1.514249,-0.55682 2.224671,-0.85783 0.710422,-0.30101 1.386805,-0.60852 2.019514,-0.8971 0.632711,-0.28858 1.222028,-0.55855 1.75855,-0.78393 0.536522,-0.22539 1.020427,-0.40636 1.442289,-0.5178 0.632547,-0.16711 1.267415,-0.28585 1.903243,-0.3638 0.635828,-0.078 1.272543,-0.11512 1.90841,-0.11886 0.635868,-0.004 1.271093,0.0261 1.90376,0.0816 0.632666,0.0555 1.262552,0.13682 1.888775,0.23668 1.252445,0.19971 2.488666,0.47329 3.695896,0.76067 1.207233,0.28738 2.385663,0.58836 3.52175,0.84388 0.217527,0.0489 0.437504,0.0434 0.629936,-0.0181 0.192431,-0.0615 0.357288,-0.17871 0.465087,-0.35346 0.107828,-0.17443 0.140311,-0.36397 0.120406,-0.55449 -0.0199,-0.19053 -0.092,-0.38229 -0.19482,-0.56018 -0.279353,-0.48302 -0.610449,-0.95022 -0.979784,-1.39991 -0.369335,-0.44969 -0.776917,-0.8814 -1.210778,-1.29346 -0.433861,-0.41206 -0.893911,-0.80448 -1.366843,-1.17461 -0.472932,-0.37012 -0.958845,-0.71842 -1.44539,-1.04231 -0.97309,-0.64778 -1.948275,-1.19852 -2.823083,-1.63556 -0.874807,-0.43703 -1.649214,-0.76001 -2.222087,-0.95188 -0.342733,-0.11477 -0.639667,-0.24039 -0.895035,-0.3731 -0.255368,-0.13271 -0.469165,-0.27265 -0.645438,-0.41651 -0.176273,-0.14387 -0.315198,-0.29154 -0.420648,-0.43977 -0.105447,-0.14823 -0.177765,-0.29707 -0.220657,-0.44287 -0.04289,-0.1458 -0.05635,-0.28871 -0.04496,-0.42529 0.0114,-0.1366 0.04801,-0.26699 0.105418,-0.38758 0.114821,-0.24118 0.312973,-0.44335 0.56224,-0.57981 0.244221,-0.13356 0.523867,-0.23159 0.834575,-0.29714 0.310708,-0.0656 0.652571,-0.0987 1.021125,-0.10283 0.368556,-0.004 0.764085,0.021 1.181841,0.0718 0.417756,0.0508 0.857885,0.12763 1.316198,0.22686 0.916631,0.19845 1.905633,0.48698 2.93264,0.83974 1.027004,0.35276 2.091777,0.76946 3.160014,1.22421 1.068234,0.45475 2.139844,0.94769 3.180167,1.45211 1.04032,0.50442 2.049835,1.02061 2.993099,1.52239 1.886521,1.00355 3.509589,1.94919 4.593,2.62826 1.151136,0.72141 1.493774,0.88852 1.501717,0.89297 0.220466,0.11956 0.43321,0.16169 0.629419,0.13591 0.19621,-0.0258 0.37619,-0.11931 0.532268,-0.27027 0.156078,-0.15091 0.24302,-0.32144 0.269235,-0.51366 0.02622,-0.19223 -0.0083,-0.40586 -0.0956,-0.64234 -0.446093,-1.10704 -0.976434,-2.17392 -1.568381,-3.19774 h -5.29e-4 c -0.641303,-1.1091 -1.355064,-2.16765 -2.113566,-3.1719 -0.758502,-1.00425 -1.561603,-1.95453 -2.38125,-2.84634 -0.819648,-0.8918 -1.655734,-1.72523 -2.480469,-2.497 -0.824738,-0.77177 -1.637969,-1.48182 -2.411741,-2.12597 -0.862872,-0.71835 -1.744337,-1.38126 -2.642213,-1.98799 -0.89788,-0.60673 -1.812341,-1.15714 -2.741954,-1.65055 -0.929611,-0.49341 -1.874309,-0.92955 -2.832383,-1.30793 -0.958075,-0.37837 -1.929736,-0.69903 -2.913002,-0.96066 -0.839547,-0.22341 -1.685039,-0.40316 -2.534729,-0.54002 -0.849689,-0.13686 -1.703277,-0.2306 -2.557984,-0.28164 -0.854705,-0.051 -1.710616,-0.0594 -2.565218,-0.0253 -0.854599,0.0341 -1.708099,0.11049 -2.557465,0.22893 -0.849368,0.11843 -1.694686,0.2785 -2.533696,0.48059 -0.83901,0.20209 -1.671411,0.4462 -2.494938,0.73122 -0.823528,0.28502 -1.638275,0.61101 -2.441195,0.97824 -0.80292,0.36722 -1.594245,0.7755 -2.371431,1.22421 -0.699709,0.40398 -1.369813,0.83572 -2.008147,1.29088 -0.638333,0.45515 -1.244899,0.93351 -1.81746,1.4304 -0.57256,0.49689 -1.110948,1.01232 -1.613338,1.54151 -0.502391,0.52919 -0.968476,1.07214 -1.396298,1.62419 -0.427823,0.55205 -0.817481,1.1135 -1.166337,1.67897 -0.348857,0.56546 -0.656931,1.13485 -0.922425,1.70429 -0.265493,0.56943 -0.488377,1.13876 -0.666109,1.70274 -0.177732,0.56397 -0.310268,1.12266 -0.395841,1.67173 -0.485385,-0.16947 -0.959723,-0.29434 -1.4221356,-0.37776 -0.462412,-0.0834 -0.913089,-0.12499 -1.352372,-0.12815 -0.439283,-0.003 -0.867129,0.0321 -1.283126,0.10335 -0.415997,0.0713 -0.820291,0.17844 -1.212846,0.31833 -0.392554,0.13988 -0.7730941,0.31251 -1.1420491,0.51521 -0.115171,0.0633 -0.221485,0.14802 -0.334346,0.21704 a 33.866664,33.866664 0 0 0 -0.05063,1.01755 33.866664,33.866664 0 0 0 6.1556967,19.39881 z"
           style="fill:#1217a2;fill-opacity:0.5515464;stroke:none;stroke-width:0.08137833"
           transform="rotate(180,28.471023,266.86128)" />
        <path
           transform="matrix(0.26458333,0,0,0.26458333,0,229.26668)"
           id="path6714"
           d="m 115.25781,120.23633 v 48.08203 h 32.52735 v 4.24219 h 23.33398 v 1.41601 h 44.54883 v -39.59961 h -32.52735 v -14.14062 h -35.35546 z"
           style="fill:#1217a2;fill-opacity:0.5515464;stroke:none;stroke-width:0.99999994" />
      </g>
    </clipPath>
  </defs>
  <metadata
     id="metadata5">
    <rdf:RDF>
      <cc:Work
         rdf:about="">
        <dc:format>image/svg+xml</dc:format>
        <dc:type
           rdf:resource="http://purl.org/dc/dcmitype/StillImage" />
        <dc:title></dc:title>
      </cc:Work>
    </rdf:RDF>
  </metadata>
  <g
     transform="translate(0,-229.26668)"
     id="layer1">
    <rect
       ry="12.160764"
       y="229.26668"
       x="0"
       height="67.73333"
       width="67.73333"
       id="rect6798"
       style="opacity:1;fill:#ffffff;fill-opacity:1;stroke:none;stroke-width:0.24410862" />
    <rect
       ry="10.289877"
       y="229.26668"
       x="0"
       height="67.73333"
       width="67.73333"
       id="rect6739"
       style="opacity:0.86000001;fill:#f00000;fill-opacity:0;stroke:none;stroke-width:0.25617999" />
    <path
       id="path5932"
       d="m 31.00154,243.40289 c -0.467207,-0.004 -0.934443,0.002 -1.401278,0.0209 -0.933669,0.0372 -1.866142,0.12072 -2.794092,0.25012 -0.927954,0.12939 -1.851483,0.30426 -2.768119,0.52505 -0.916639,0.22079 -1.826054,0.48748 -2.725778,0.79888 -0.899722,0.31139 -1.789852,0.66754 -2.667061,1.06875 -0.877209,0.4012 -1.74175,0.84725 -2.590844,1.33748 -0.764447,0.44136 -1.49655,0.91304 -2.193945,1.41032 -0.697394,0.49725 -1.360081,1.01987 -1.985617,1.56273 -0.625535,0.54287 -1.213736,1.10599 -1.762609,1.68414 -0.5488733,0.57815 -1.0580812,1.17134 -1.5254863,1.77446 -0.4674061,0.60314 -0.893117,1.21653 -1.2742501,1.83432 -0.3811341,0.61777 -0.717711,1.23985 -1.0077697,1.86197 -0.2900566,0.62212 -0.5335635,1.24412 -0.7277402,1.86027 -0.1941758,0.61615 -0.3389747,1.22655 -0.4324651,1.82642 -0.5302942,-0.18515 -1.0485194,-0.32158 -1.5537162,-0.41271 -0.5051957,-0.0911 -0.9975706,-0.13656 -1.4774974,-0.14002 -0.4799266,-0.003 -0.9473572,0.0351 -1.40184446,0.11292 -0.45448636,0.0779 -0.89618679,0.19495 -1.32506096,0.34777 -0.42887428,0.15283 -0.84462408,0.34144 -1.24771478,0.5629 -0.1258269,0.0691 -0.2419785,0.16172 -0.3652817,0.23712 -10.2073041,6.46643 -18.5447231,18.40558 -19.6551781,26.01852 l 7.314659,3.07525 c 7.9496663,0.69438 13.1971664,-2.25695 19.0104304,-6.78847 0.4530846,-0.40171 0.9262311,-0.76174 1.3617586,-1.189 1.01334,-0.99411 1.9702477,-2.05239 2.830224,-3.15034 0.4299886,-0.54897 0.8357927,-1.10752 1.2121473,-1.67341 0.3763527,-0.5659 0.7234767,-1.13895 1.0359977,-1.71574 0.312522,-0.5768 0.590307,-1.15725 0.828799,-1.7389 0.238493,-0.58166 0.43741,-1.1646 0.591677,-1.7451 0.448964,0.21754 0.90132,0.39892 1.355548,0.54706 0.454228,0.14815 0.910436,0.26323 1.367405,0.34892 0.456969,0.0856 0.914735,0.14202 1.371923,0.17219 0.457187,0.0301 0.91365,0.0342 1.368534,0.0159 0.909765,-0.0368 1.812701,-0.16434 2.698112,-0.35398 0.885411,-0.18966 1.753358,-0.44189 2.59423,-0.72888 0.840873,-0.28698 1.654353,-0.60833 2.430505,-0.9372 0.776152,-0.32885 1.515118,-0.66481 2.206365,-0.98009 0.691252,-0.31528 1.335091,-0.61024 1.921254,-0.85648 0.586163,-0.24624 1.114842,-0.44395 1.575737,-0.56569 0.691072,-0.18258 1.384681,-0.31231 2.079337,-0.39746 0.694657,-0.0853 1.390281,-0.12577 2.084981,-0.12986 0.694701,-0.004 1.388699,0.0285 2.079901,0.0892 0.691203,0.0607 1.379365,0.14948 2.063528,0.25857 1.368324,0.21819 2.718927,0.51709 4.037854,0.83105 1.31893,0.31397 2.606391,0.6428 3.847591,0.92196 0.237654,0.0535 0.477981,0.0475 0.68822,-0.0198 0.210236,-0.0671 0.390345,-0.19526 0.508119,-0.38617 0.117805,-0.19057 0.153293,-0.39764 0.131547,-0.60579 -0.02174,-0.20815 -0.100512,-0.41766 -0.212847,-0.61201 -0.305199,-0.52771 -0.666929,-1.03813 -1.070438,-1.52943 -0.403508,-0.4913 -0.8488,-0.96295 -1.322804,-1.41314 -0.474002,-0.45018 -0.976614,-0.8789 -1.493303,-1.28328 -0.51669,-0.40437 -1.04756,-0.7849 -1.579122,-1.13875 -1.063123,-0.70772 -2.128535,-1.30941 -3.084286,-1.78688 -0.955745,-0.47747 -1.801801,-0.83033 -2.427678,-1.03996 -0.374445,-0.12538 -0.698854,-0.26264 -0.977849,-0.40762 -0.278995,-0.14498 -0.512573,-0.29788 -0.705156,-0.45505 -0.192582,-0.15719 -0.344358,-0.31851 -0.459565,-0.48045 -0.115203,-0.16195 -0.194215,-0.32457 -0.241076,-0.48385 -0.04686,-0.15929 -0.06156,-0.31544 -0.04912,-0.46464 0.01245,-0.14925 0.05246,-0.29169 0.115174,-0.42344 0.125445,-0.2635 0.341931,-0.48437 0.614259,-0.63346 0.266818,-0.14591 0.572337,-0.25301 0.911794,-0.32463 0.339455,-0.0717 0.712948,-0.10783 1.115601,-0.11234 0.402657,-0.004 0.834781,0.0229 1.291189,0.0785 0.456408,0.0555 0.937259,0.13944 1.437977,0.24785 1.001441,0.21681 2.081944,0.53203 3.203973,0.91743 1.122025,0.3854 2.285315,0.84066 3.452387,1.33749 1.167071,0.49682 2.33783,1.03537 3.474406,1.58646 1.136574,0.55108 2.239492,1.11503 3.27003,1.66324 2.061067,1.0964 3.834309,2.12953 5.017959,2.87144 1.257643,0.78816 1.631983,0.97073 1.64066,0.97559 0.240865,0.13062 0.473293,0.17665 0.687653,0.14848 0.214367,-0.0282 0.410996,-0.13035 0.581515,-0.29527 0.170519,-0.16488 0.265505,-0.35119 0.294145,-0.56118 0.02865,-0.21002 -0.0091,-0.44342 -0.104445,-0.70178 -0.487367,-1.20946 -1.066774,-2.37506 -1.71349,-3.4936 h -5.64e-4 c -0.700641,-1.21173 -1.48044,-2.36821 -2.309122,-3.46538 -0.828678,-1.09716 -1.706086,-2.13537 -2.601569,-3.10967 -0.895485,-0.97432 -1.808927,-1.88488 -2.70997,-2.72804 -0.901045,-0.84318 -1.789515,-1.61893 -2.634878,-2.32268 -0.942708,-0.78482 -1.905731,-1.50905 -2.886682,-2.17193 -0.980954,-0.66286 -1.980021,-1.26419 -2.995644,-1.80325 -1.015621,-0.53907 -2.047728,-1.01556 -3.094447,-1.42895 -1.046719,-0.41338 -2.108278,-0.76371 -3.182518,-1.04954 -0.917225,-0.24408 -1.840943,-0.44046 -2.769249,-0.58999 -0.928305,-0.14952 -1.860869,-0.25194 -2.794656,-0.3077 -0.466893,-0.0279 -0.934071,-0.0439 -1.401281,-0.0485 z"
       style="opacity:1;fill:#ff1744;fill-opacity:1;stroke:none;stroke-width:0.08890769" />
  </g>
</svg>
